<svg width="20" height="10" viewBox="0 0 20 10" fill="none" xmlns="http://www.w3.org/2000/svg">
<path d="M3.68945 9H2.74023V2.89453C2.74023 2.38672 2.75586 1.90625 2.78711 1.45312C2.70508 1.53516 2.61328 1.62109 2.51172 1.71094C2.41016 1.80078 1.94531 2.18164 1.11719 2.85352L0.601562 2.18555L2.86914 0.433594H3.68945V9ZM9.78906 0.310547C10.5703 0.310547 11.1895 0.492188 11.6465 0.855469C12.1035 1.21875 12.332 1.7207 12.332 2.36133C12.332 2.7832 12.2012 3.16797 11.9395 3.51562C11.6777 3.86328 11.2598 4.17969 10.6855 4.46484C11.3809 4.79688 11.875 5.14648 12.168 5.51367C12.4609 5.87695 12.6074 6.29883 12.6074 6.7793C12.6074 7.49023 12.3594 8.05859 11.8633 8.48438C11.3672 8.90625 10.6875 9.11719 9.82422 9.11719C8.91016 9.11719 8.20703 8.91797 7.71484 8.51953C7.22266 8.11719 6.97656 7.54883 6.97656 6.81445C6.97656 5.83398 7.57422 5.07031 8.76953 4.52344C8.23047 4.21875 7.84375 3.89062 7.60938 3.53906C7.375 3.18359 7.25781 2.78711 7.25781 2.34961C7.25781 1.72852 7.48633 1.23438 7.94336 0.867188C8.4043 0.496094 9.01953 0.310547 9.78906 0.310547ZM7.9375 6.83789C7.9375 7.30664 8.09961 7.67188 8.42383 7.93359C8.75195 8.19531 9.21094 8.32617 9.80078 8.32617C10.3828 8.32617 10.8359 8.18945 11.1602 7.91602C11.4844 7.64258 11.6465 7.26758 11.6465 6.79102C11.6465 6.41211 11.4941 6.07617 11.1895 5.7832C10.8848 5.48633 10.3535 5.19922 9.5957 4.92188C9.01367 5.17188 8.5918 5.44922 8.33008 5.75391C8.06836 6.05469 7.9375 6.41602 7.9375 6.83789ZM9.77734 1.10156C9.28906 1.10156 8.90625 1.21875 8.62891 1.45312C8.35156 1.6875 8.21289 2 8.21289 2.39062C8.21289 2.75 8.32812 3.05859 8.55859 3.31641C8.78906 3.57422 9.21484 3.83203 9.83594 4.08984C10.3945 3.85547 10.7891 3.60352 11.0195 3.33398C11.2539 3.06445 11.3711 2.75 11.3711 2.39062C11.3711 1.99609 11.2285 1.68359 10.9434 1.45312C10.6621 1.21875 10.2734 1.10156 9.77734 1.10156ZM17.0605 4.36523H19.4746V5.17383H17.0605V7.66992H16.2461V5.17383H13.8438V4.36523H16.2461V1.85742H17.0605V4.36523Z" fill="#A1A6B4"/>
</svg>
